<svg xmlns="http://www.w3.org/2000/svg" xml:space="preserve" width="1090.8998" height="400" viewBox="0 0 1090.8997 400"><path d="M0 0c-1.621 12.197-7.62 22.143-13.761 22.192-6.135 0-15.099-9.958-20.326-22.211-5.223-12.256.687-22.188 13.828-22.188C-7.035-22.07 1.612-12.216 0 0" style="fill:#de2538;fill-opacity:1;fill-rule:nonzero;stroke:none" transform="matrix(4.21216 0 0 -4.21216 321.044 306.46)"/><path d="M0 0c-7.847 0-13.566-6.199-13.566-14.051 0-7.845 5.719-13.859 13.566-13.859 4.362 0 8.486 1.959 11.211 5.358-.296.279-1.051 1.883-3.579 1.883-2.379 0-2.915-2.384-7.632-2.384-4.619 0-8.445 3.918-8.445 9.002 0 5.089 3.826 9.188 8.445 9.188 4.21 0 5.22-2.503 7.385-2.503 2.169 0 3.43 1.731 3.723 2.004C8.387-1.957 4.362 0 0 0" style="fill:#1d1d1b;fill-opacity:1;fill-rule:nonzero;stroke:none" transform="matrix(4.21216 0 0 -4.21216 57.142 169.71)"/><path d="M0 0h-11.026c-1.868 0-3.171-1.117-3.171-2.896v-1.627h4.915s.19-16.614-.025-18.408l-.004-.006c-.065-1.371-.659-4.649-3.818-6.131-2.592-1.215-2.622-2.377-2.75-4.182.037-.13.088-.21.163-.212h.014c.012 0 .02 0 .033.004.088.024 2.573.635 2.936.788l-.013.008c2.334.722 5.897 2.319 7.6 5.624 0 0 1.592 2.454 1.559 7.711v14.804h.235C-1.488-4.523 0-3.404 0-1.625V.004" style="fill:#1d1d1b;fill-opacity:1;fill-rule:nonzero;stroke:none" transform="matrix(4.21216 0 0 -4.21216 173.703 173.14)"/><path d="M0 0c-11.505 4.519-23.129 4.047-26.094-1.312-2.894-5.438 1.398-18.007 9.583-28.513C-8.33-40.334 3.223-39.985 9.6-28.489 15.904-17.03 11.471-4.514 0 0" style="fill:#e98600;fill-opacity:1;fill-rule:nonzero;stroke:none" transform="matrix(4.21216 0 0 -4.21216 413.324 136.317)"/><path d="M0 0c10.209-6.976 21.646-9.082 25.698-4.559C29.788 0 28.377 13.316 22.737 25.39 17.1 37.455 5.752 39.687-3.014 29.905-11.676 20.133-10.181 6.952 0 0" style="fill:#007bc2;fill-opacity:1;fill-rule:nonzero;stroke:none" transform="matrix(4.21216 0 0 -4.21216 166.895 151.783)"/><path d="M0 0c1.872 0 3.397-1.896 3.397-4.236S1.872-8.474 0-8.474c-1.889 0-3.402 1.898-3.402 4.238C-3.402-1.896-1.889 0 0 0m.004-10.968c4.177 0 7.562 3.014 7.562 6.738 0 3.719-3.385 6.733-7.562 6.733-4.186 0-7.571-3.014-7.571-6.733 0-3.724 3.385-6.738 7.571-6.738" style="fill:#1d1d1b;fill-opacity:1;fill-rule:nonzero;stroke:none" transform="matrix(4.21216 0 0 -4.21216 892.495 184.361)"/><path d="M0 0c-.286-.002-1.388-.097-1.388-1.399l-.004-1.297H24.24c.284.002 1.394.096 1.394 1.399L25.626.002z" style="fill:#1d1d1b;fill-opacity:1;fill-rule:nonzero;stroke:none" transform="matrix(4.21216 0 0 -4.21216 503.232 261.443)"/><path d="M531.926 214.049H510.55v28.972h21.377zm25.308-4.076v4.076h-12.137l.012 28.972h6.223c.897 0 4.391.3 4.391 4.416v4.104h-64.61c-.912-.012-4.403-.313-4.403-4.429l.025-4.091h10.63v-28.972h-7.758c-.891-.01-4.385-.31-4.385-4.426v-4.079l67.611.012c.898.006 4.401.3 4.401 4.417" style="fill:#1d1d1b;fill-opacity:1;fill-rule:nonzero;stroke:none;stroke-width:3.15912" transform="matrix(1.33333 0 0 -1.33333 -140.685 513.965)"/><path d="M0 0c-1.551 0-2.404-.963-2.404-2.696l.004-24.461h1.764c1.549 0 2.405.961 2.405 2.701L1.76 0Z" style="fill:#1d1d1b;fill-opacity:1;fill-rule:nonzero;stroke:none" transform="matrix(4.21216 0 0 -4.21216 838.062 172.568)"/><path d="M0 0v4.295l-1.761.004c-1.554 0-2.408-.963-2.408-2.696L-4.164 0c0-3.717-.235-8.277-7.608-13.465l1.113-1.18s1.161-1.282 2.581-.28c1.617 1.279 4.301 3.676 5.996 6.657 1.694-2.981 4.379-5.378 5.993-6.657 1.421-1.002 2.583.28 2.583.28l1.114 1.18C.235-8.277 0-3.717 0 0" style="fill:#1d1d1b;fill-opacity:1;fill-rule:nonzero;stroke:none" transform="matrix(4.21216 0 0 -4.21216 786.89 194.06)"/><path d="M0 0c-1.55 0-2.403-.958-2.403-2.696v-24.461h1.768c1.555 0 2.405.961 2.405 2.697V0Z" style="fill:#1d1d1b;fill-opacity:1;fill-rule:nonzero;stroke:none" transform="matrix(4.21216 0 0 -4.21216 1083.444 172.568)"/><path d="M0 0c-2.837 0-5.13 3.009-5.13 6.718 0 3.713 2.293 6.722 5.13 6.722 2.828 0 5.125-3.009 5.125-6.722C5.125 3.009 2.828 0 0 0m.004 16.142c-5.142 0-9.311-4.219-9.311-9.42 0-5.196 4.169-9.414 9.311-9.414 5.134 0 9.294 4.218 9.294 9.414 0 5.201-4.16 9.42-9.294 9.42" style="fill:#1d1d1b;fill-opacity:1;fill-rule:nonzero;stroke:none" transform="matrix(4.21216 0 0 -4.21216 1024.445 245.039)"/><path d="M0 0h1.608c1.551 0 2.405.959 2.405 2.695v24.456H2.408C.857 27.151 0 26.19 0 24.454Z" style="fill:#1d1d1b;fill-opacity:1;fill-rule:nonzero;stroke:none" transform="matrix(4.21216 0 0 -4.21216 711.162 286.967)"/><path d="M0 0h1.604c1.555 0 2.409.961 2.409 2.701v24.456H2.404c-1.55 0-2.404-.96-2.404-2.696Z" style="fill:#1d1d1b;fill-opacity:1;fill-rule:nonzero;stroke:none" transform="matrix(4.21216 0 0 -4.21216 954.69 286.959)"/><path d="M0 0c-1.551 0-2.408-.96-2.408-2.696v-11.336c-3.542-.697-7.435-.821-8.125-.793h-7.202c-.288-.003-1.39-.098-1.39-1.401l.004-1.295h5.617v-8.989h1.76c1.551 0 2.402.959 2.402 2.699v6.383c2.934.147 5.19.464 6.934.852v-3.592h-2.948c-.287-.008-1.39-.103-1.39-1.405l.004-1.287h4.334v-4.297H-.8c1.555 0 2.402.961 2.402 2.701V0Z" style="fill:#1d1d1b;fill-opacity:1;fill-rule:nonzero;stroke:none" transform="matrix(4.21216 0 0 -4.21216 940.223 172.568)"/><path d="M0 0c-1.551 0-2.404-.961-2.404-2.697v-9.88H-5.36c-.286-.004-1.394-.099-1.394-1.4v-1.284h4.35v-2.111a54.337 54.337 0 0 0-5.501-.417h-5.133v6.614h5.847c1.55 0 2.408.957 2.408 2.693v7.46H-15.81c-.289-.004-1.389-.1-1.389-1.403v-1.288l8.251-.002v-4.767l-5.864.004c-1.554 0-2.408-.959-2.4-2.697l.009-9.308 6.115-.002c3.618 0 6.544.256 8.684.629v-7.295H-.8c1.555 0 2.404.959 2.404 2.695V0Z" style="fill:#1d1d1b;fill-opacity:1;fill-rule:nonzero;stroke:none" transform="matrix(4.21216 0 0 -4.21216 696.695 172.601)"/></svg>