<svg xmlns="http://www.w3.org/2000/svg" width="1200" height="630" viewBox="0 0 1200 630">
  <defs>
    <radialGradient id="g1" cx="35%" cy="30%" r="50%">
      <stop offset="0%" stop-color="#2F6DC4" stop-opacity="0.15"/>
      <stop offset="100%" stop-color="#060D1F" stop-opacity="0"/>
    </radialGradient>
    <radialGradient id="g2" cx="70%" cy="75%" r="45%">
      <stop offset="0%" stop-color="#D4A853" stop-opacity="0.1"/>
      <stop offset="100%" stop-color="#060D1F" stop-opacity="0"/>
    </radialGradient>
    <linearGradient id="line" x1="0%" y1="0%" x2="100%" y2="0%">
      <stop offset="0%" stop-color="transparent"/>
      <stop offset="50%" stop-color="#D4A853"/>
      <stop offset="100%" stop-color="transparent"/>
    </linearGradient>
  </defs>
  <rect width="1200" height="630" fill="#060D1F"/>
  <rect width="1200" height="630" fill="url(#g1)"/>
  <rect width="1200" height="630" fill="url(#g2)"/>
  <!-- ZENO Symbol -->
  <g transform="translate(545, 120) scale(0.35)">
    <path fill="#7BB8EE" d="M 84.5 0 Q 92.4 -0.9 94 4.5 L 145 69.5 L 143.5 70 L 91.5 54 L 86.5 54 L 78 59.5 L 52 93.5 L 38.5 108 L 25.5 113 L 16.5 113 Q 6 111 0 104.5 L 80.5 2 L 84.5 0 Z"/>
    <path fill="#7BB8EE" d="M 172.5 55 L 186.5 55 Q 195.9 57.1 201 63.5 L 118.5 167 Q 110.5 168.5 108 164.5 L 56 98.5 L 58.5 98 L 100.5 111 L 108.5 113 L 116.5 113 L 125 105.5 L 160.5 61 L 172.5 55 Z"/>
  </g>
  <text x="600" y="270" text-anchor="middle" font-family="Georgia,serif" font-size="80" font-weight="700" fill="white" letter-spacing="16">ZENO</text>
  <rect x="540" y="290" width="120" height="2" fill="url(#line)"/>
  <text x="600" y="350" text-anchor="middle" font-family="sans-serif" font-size="32" font-weight="700" fill="rgba(255,255,255,0.9)">기업 구매 지출관리 OS</text>
  <text x="600" y="395" text-anchor="middle" font-family="sans-serif" font-size="32" font-weight="700" fill="rgba(255,255,255,0.9)">흩어진 지출, 하나로</text>
  <text x="600" y="450" text-anchor="middle" font-family="sans-serif" font-size="20" fill="rgba(255,255,255,0.5)">캐스팅엔 제노 | 국내 유일 BSM 솔루션</text>
</svg>
